<svg width="145" height="38" viewBox="0 0 145 38" fill="none" xmlns="http://www.w3.org/2000/svg">
<g filter="url(#filter0_dddi_1_4728)">
<g clip-path="url(#clip0_1_4728)">
<path d="M3 14.8C3 10.3196 3 8.07937 3.87195 6.36808C4.63893 4.86278 5.86278 3.63893 7.36808 2.87195C9.07937 2 11.3196 2 15.8 2H22.2C26.6804 2 28.9206 2 30.6319 2.87195C32.1372 3.63893 33.3611 4.86278 34.1281 6.36808C35 8.07937 35 10.3196 35 14.8V21.2C35 25.6804 35 27.9206 34.1281 29.6319C33.3611 31.1372 32.1372 32.3611 30.6319 33.1281C28.9206 34 26.6804 34 22.2 34H15.8C11.3196 34 9.07937 34 7.36808 33.1281C5.86278 32.3611 4.63893 31.1372 3.87195 29.6319C3 27.9206 3 25.6804 3 21.2V14.8Z" fill="white"/>
<path d="M3 14.8C3 10.3196 3 8.07937 3.87195 6.36808C4.63893 4.86278 5.86278 3.63893 7.36808 2.87195C9.07937 2 11.3196 2 15.8 2H22.2C26.6804 2 28.9206 2 30.6319 2.87195C32.1372 3.63893 33.3611 4.86278 34.1281 6.36808C35 8.07937 35 10.3196 35 14.8V21.2C35 25.6804 35 27.9206 34.1281 29.6319C33.3611 31.1372 32.1372 32.3611 30.6319 33.1281C28.9206 34 26.6804 34 22.2 34H15.8C11.3196 34 9.07937 34 7.36808 33.1281C5.86278 32.3611 4.63893 31.1372 3.87195 29.6319C3 27.9206 3 25.6804 3 21.2V14.8Z" fill="url(#paint0_linear_1_4728)" fill-opacity="0.2"/>
<g opacity="0.14" clip-path="url(#clip1_1_4728)">
<path fill-rule="evenodd" clip-rule="evenodd" d="M18.9612 2H19.0388V3.96123C20.8929 3.96625 22.6625 4.33069 24.2816 4.98855V2H24.3592V5.02038C25.7339 5.58859 26.9986 6.36882 28.1126 7.32031H29.602V2H29.6796V7.32031H35V7.39798H29.6796V8.88728C30.6311 10.0013 31.4113 11.266 31.9796 12.6406H35V12.7183H32.0114C32.6693 14.3373 33.0337 16.1069 33.0388 17.9609H35V18.0386H33.0388C33.0338 19.8927 32.6694 21.6622 32.0116 23.2812H35V23.3589H31.9798C31.4115 24.7337 30.6312 25.9986 29.6796 27.1128V28.6016H35V28.6792H29.6796V34H29.602V28.6792H28.1132C26.999 29.6309 25.7341 30.4113 24.3592 30.9797V34H24.2816V31.0115C22.6625 31.6693 20.8929 32.0338 19.0388 32.0388V34H18.9612V32.0388C17.1071 32.0338 15.3375 31.6693 13.7184 31.0115V34H13.6408V30.9797C12.2659 30.4113 11.001 29.6309 9.88678 28.6792H8.39804V34H8.32037V28.6792H3V28.6016H8.32037V27.1128C7.36877 25.9986 6.58847 24.7337 6.02023 23.3589H3V23.2812H5.9884C5.3306 21.6622 4.96621 19.8927 4.96122 18.0386H3V17.9609H4.96122C4.96627 16.1069 5.33073 14.3373 5.9886 12.7183H3V12.6406H6.02044C6.58866 11.266 7.36889 10.0013 8.32037 8.88728V7.39798H3V7.32031H8.32037V2H8.39804V7.32031H9.88736C11.0014 6.36882 12.2661 5.58859 13.6408 5.02038V2H13.7184V4.98855C15.3375 4.33069 17.1071 3.96626 18.9612 3.96123V2ZM18.9612 4.0389C17.1062 4.04396 15.3364 4.41075 13.7184 5.07245V7.32031H18.9612V4.0389ZM13.6408 5.10449C12.3137 5.65662 11.0902 6.40763 10.0074 7.32031H13.6408V5.10449ZM9.79719 7.39798H8.39804V8.79711C8.8311 8.29865 9.29872 7.83103 9.79719 7.39798ZM8.39804 8.91598C8.86452 8.37206 9.37213 7.86446 9.91606 7.39798H13.6408V12.6406H8.39804V8.91598ZM8.32037 9.00733C7.4077 10.0901 6.65669 11.3136 6.10454 12.6406H8.32037V9.00733ZM6.0725 12.7183C5.41078 14.3362 5.04397 16.106 5.03889 17.9609H8.32037V12.7183H6.0725ZM5.03889 18.0386C5.04391 19.8935 5.41065 21.6633 6.0723 23.2812H8.32037V18.0386H5.03889ZM6.10434 23.3589C6.6565 24.6861 7.40759 25.9098 8.32037 26.9927V23.3589H6.10434ZM8.39804 27.2029V28.6016H9.79662C9.29837 28.1686 8.83093 27.7012 8.39804 27.2029ZM9.91548 28.6016C9.37178 28.1352 8.86436 27.6278 8.39804 27.0841V23.3589H13.6408V28.6016H9.91548ZM10.0068 28.6792C11.0898 29.5921 12.3135 30.3433 13.6408 30.8955V28.6792H10.0068ZM13.7184 30.9276C15.3364 31.5893 17.1062 31.9561 18.9612 31.9611V28.6792H13.7184V30.9276ZM19.0388 31.9611C20.8937 31.9561 22.6636 31.5893 24.2816 30.9276V28.6792H19.0388V31.9611ZM24.3592 30.8955C25.6865 30.3433 26.9102 29.5921 27.9932 28.6792H24.3592V30.8955ZM28.2034 28.6016H29.602V27.2029C29.1691 27.7012 28.7016 28.1686 28.2034 28.6016ZM29.602 27.0841C29.1356 27.6278 28.6282 28.1352 28.0845 28.6016H24.3592V23.3589H29.602V27.0841ZM29.6796 26.9927C30.5924 25.9098 31.3435 24.6861 31.8957 23.3589H29.6796V26.9927ZM31.9277 23.2812C32.5894 21.6633 32.9561 19.8935 32.9611 18.0386H29.6796V23.2812H31.9277ZM32.9611 17.9609C32.956 16.1061 32.5892 14.3362 31.9275 12.7183H29.6796V17.9609H32.9611ZM31.8955 12.6406C31.3433 11.3136 30.5923 10.0901 29.6796 9.00733V12.6406H31.8955ZM29.602 8.79711V7.39798H28.2028C28.7013 7.83103 29.1689 8.29865 29.602 8.79711ZM28.0839 7.39798C28.6279 7.86446 29.1355 8.37206 29.602 8.91598V12.6406H24.3592V7.39798H28.0839ZM27.9926 7.32031C26.9098 6.40763 25.6863 5.65662 24.3592 5.10449V7.32031H27.9926ZM24.2816 5.07245C22.6636 4.41074 20.8937 4.04395 19.0388 4.0389V7.32031H24.2816V5.07245ZM13.7184 7.39798H18.9612V12.6406H13.7184V7.39798ZM24.2816 7.39798H19.0388V12.6406H24.2816V7.39798ZM13.6408 23.2812H8.39804V18.0386H13.6408V23.2812ZM13.7184 23.3589V28.6016H18.9612V23.3589H13.7184ZM18.9612 23.2812H13.7184V18.0386H18.9612V23.2812ZM19.0388 23.3589V28.6016H24.2816V23.3589H19.0388ZM24.2816 23.2812H19.0388V18.0386H24.2816V23.2812ZM29.602 23.2812H24.3592V18.0386H29.602V23.2812ZM13.7184 12.7183H18.9612V17.9609H13.7184V12.7183ZM8.39804 12.7183L13.6408 12.7183V17.9609H8.39804V12.7183ZM24.2816 12.7183H19.0388V17.9609H24.2816V12.7183ZM24.3592 17.9609V12.7183L29.602 12.7183V17.9609H24.3592Z" fill="#0A0D12"/>
</g>
<g filter="url(#filter1_dd_1_4728)">
<rect x="11" y="10" width="16" height="16" rx="8" fill="url(#paint1_linear_1_4728)"/>
<rect x="11" y="10" width="16" height="16" rx="8" fill="url(#paint2_radial_1_4728)" fill-opacity="0.08"/>
<rect x="11" y="10" width="16" height="16" rx="8" fill="url(#paint3_radial_1_4728)" fill-opacity="0.18"/>
<rect x="11" y="10" width="16" height="16" rx="8" fill="url(#paint4_radial_1_4728)" fill-opacity="0.05"/>
<path d="M23.8 14.0414C23.8 15.3898 21.651 14.5297 19 14.5297C16.349 14.5297 14.2 15.3898 14.2 14.0414C14.2 12.693 16.349 11.6 19 11.6C21.651 11.6 23.8 12.693 23.8 14.0414Z" fill="url(#paint5_linear_1_4728)" fill-opacity="0.4"/>
</g>
<g filter="url(#filter2_b_1_4728)">
<path d="M3 18H35V21.2C35 25.6804 35 27.9206 34.1281 29.6319C33.3611 31.1372 32.1372 32.3611 30.6319 33.1281C28.9206 34 26.6804 34 22.2 34H15.8C11.3196 34 9.07937 34 7.36808 33.1281C5.86278 32.3611 4.63893 31.1372 3.87195 29.6319C3 27.9206 3 25.6804 3 21.2V18Z" fill="white" fill-opacity="0.2"/>
</g>
</g>
<path d="M3.1 14.8C3.1 12.5581 3.10008 10.8828 3.20866 9.55376C3.31715 8.22593 3.53345 7.25268 3.96105 6.41348C4.71845 4.92699 5.92699 3.71845 7.41348 2.96105C8.25268 2.53345 9.22593 2.31715 10.5538 2.20866C11.8828 2.10008 13.5581 2.1 15.8 2.1H22.2C24.4419 2.1 26.1172 2.10008 27.4462 2.20866C28.7741 2.31715 29.7473 2.53345 30.5865 2.96105C32.073 3.71845 33.2816 4.92699 34.039 6.41348C34.4665 7.25268 34.6828 8.22593 34.7913 9.55376C34.8999 10.8828 34.9 12.5581 34.9 14.8V21.2C34.9 23.4419 34.8999 25.1172 34.7913 26.4462C34.6828 27.7741 34.4665 28.7473 34.039 29.5865C33.2816 31.073 32.073 32.2816 30.5865 33.039C29.7473 33.4665 28.7741 33.6828 27.4462 33.7913C26.1172 33.8999 24.4419 33.9 22.2 33.9H15.8C13.5581 33.9 11.8828 33.8999 10.5538 33.7913C9.22593 33.6828 8.25268 33.4665 7.41348 33.039C5.92699 32.2816 4.71845 31.073 3.96105 29.5865C3.53345 28.7473 3.31715 27.7741 3.20866 26.4462C3.10008 25.1172 3.1 23.4419 3.1 21.2V14.8Z" stroke="#0A0D12" stroke-opacity="0.12" stroke-width="0.2"/>
</g>
<path d="M78.9101 12.2372C79.2321 12.5355 79.6179 12.6846 80.0678 12.6846C80.5176 12.6846 80.9011 12.5355 81.2183 12.2372C81.5403 11.9341 81.7013 11.5719 81.7013 11.1505C81.7013 10.7339 81.5403 10.3764 81.2183 10.0781C80.9011 9.77505 80.5176 9.62354 80.0678 9.62354C79.6179 9.62354 79.2321 9.77505 78.9101 10.0781C78.5928 10.3764 78.4342 10.7339 78.4342 11.1505C78.4342 11.5719 78.5928 11.9341 78.9101 12.2372Z" fill="white"/>
<path d="M56.2997 22.6846C56.8063 21.8892 57.0597 20.9611 57.0597 19.9005V10.4545H53.9844V19.6377C53.9844 20.1917 53.8613 20.6841 53.6151 21.115C53.3736 21.5459 53.0303 21.8844 52.5852 22.1306C52.1449 22.3769 51.6264 22.5 51.0298 22.5C50.438 22.5 49.9195 22.3769 49.4744 22.1306C49.0294 21.8844 48.6837 21.5459 48.4375 21.115C48.196 20.6841 48.0753 20.1917 48.0753 19.6377V10.4545H45V19.9005C45 20.9611 45.2509 21.8892 45.7528 22.6846C46.2547 23.4801 46.9579 24.1003 47.8622 24.5454C48.7666 24.9858 49.8224 25.2059 51.0298 25.2059C52.2325 25.2059 53.286 24.9858 54.1903 24.5454C55.0947 24.1003 55.7978 23.4801 56.2997 22.6846Z" fill="white"/>
<path d="M63.3589 14.5099C62.7907 14.8792 62.3859 15.3811 62.1444 16.0156H62.0165V14.0909H59.133V25H62.1586V18.6931C62.1633 18.2244 62.2509 17.8243 62.4214 17.4929C62.5966 17.1567 62.838 16.901 63.1458 16.7258C63.4583 16.5506 63.8182 16.463 64.2254 16.463C64.8314 16.463 65.3073 16.6524 65.6529 17.0312C65.9986 17.4053 66.169 17.9261 66.1643 18.5937V25H69.1898V18.0539C69.1898 17.2064 69.0336 16.4772 68.7211 15.8664C68.4086 15.2509 67.9706 14.7774 67.4072 14.446C66.8437 14.1145 66.1832 13.9488 65.4256 13.9488C64.616 13.9488 63.9271 14.1358 63.3589 14.5099Z" fill="white"/>
<path d="M72.3463 23.821C72.0433 23.3522 71.8941 22.7604 71.8989 22.0454V16.3636H70.4074V14.0909H71.8989V11.4772H74.9244V14.0909H76.977V16.3636H74.9244V21.6477C74.9244 21.927 74.967 22.1448 75.0523 22.3011C75.1375 22.4526 75.2559 22.5591 75.4074 22.6207C75.5636 22.6822 75.7436 22.713 75.9472 22.713C76.0892 22.713 76.2313 22.7012 76.3733 22.6775C76.5153 22.6491 76.6242 22.6278 76.7 22.6136L77.1759 24.865C77.0243 24.9124 76.8113 24.9668 76.5366 25.0284C76.262 25.0947 75.9282 25.1349 75.5352 25.1491C74.8061 25.1775 74.1669 25.0804 73.6176 24.8579C73.0731 24.6354 72.6493 24.2897 72.3463 23.821Z" fill="white"/>
<path d="M84.769 23.821C84.4659 23.3522 84.3168 22.7604 84.3215 22.0454V16.3636H82.83V14.0909H84.3215V11.4772H87.3471V14.0909H89.3996V16.3636H87.3471V21.6477C87.3471 21.927 87.3897 22.1448 87.4749 22.3011C87.5602 22.4526 87.6785 22.5591 87.83 22.6207C87.9863 22.6822 88.1662 22.713 88.3698 22.713C88.5119 22.713 88.6539 22.7012 88.796 22.6775C88.938 22.6491 89.0469 22.6278 89.1227 22.6136L89.5985 24.865C89.447 24.9124 89.2339 24.9668 88.9593 25.0284C88.6847 25.0947 88.3509 25.1349 87.9579 25.1491C87.2287 25.1775 86.5895 25.0804 86.0403 24.8579C85.4958 24.6354 85.072 24.2897 84.769 23.821Z" fill="white"/>
<path fill-rule="evenodd" clip-rule="evenodd" d="M101.226 25.213C100.104 25.213 99.1376 24.9858 98.328 24.5312C97.5231 24.0719 96.9028 23.4233 96.4672 22.5852C96.0316 21.7424 95.8138 20.7457 95.8138 19.5951C95.8138 18.473 96.0316 17.4881 96.4672 16.6406C96.9028 15.793 97.516 15.1325 98.3067 14.659C99.1021 14.1856 100.035 13.9488 101.105 13.9488C101.825 13.9488 102.495 14.0648 103.115 14.2968C103.74 14.5241 104.284 14.8674 104.748 15.3267C105.217 15.7859 105.582 16.3636 105.842 17.0596C106.103 17.7509 106.233 18.5606 106.233 19.4886V20.3196H98.8038V20.3267C98.8038 20.8664 98.9033 21.3328 99.1021 21.7258C99.3057 22.1188 99.5922 22.4218 99.9615 22.6349C100.331 22.848 100.769 22.9545 101.275 22.9545C101.612 22.9545 101.919 22.9072 102.199 22.8125C102.478 22.7178 102.717 22.5757 102.916 22.3863C103.115 22.1969 103.266 21.9649 103.371 21.6903L106.169 21.875C106.027 22.5473 105.736 23.1344 105.295 23.6363C104.86 24.1335 104.296 24.5217 103.605 24.8011C102.918 25.0757 102.125 25.213 101.226 25.213ZM99.1092 17.3721C98.9258 17.6953 98.8249 18.0528 98.8067 18.4446H103.385C103.385 18.009 103.29 17.6231 103.101 17.2869C102.911 16.9507 102.649 16.6879 102.312 16.4985C101.981 16.3044 101.595 16.2073 101.155 16.2073C100.695 16.2073 100.288 16.3139 99.9331 16.5269C99.5827 16.7353 99.3081 17.017 99.1092 17.3721Z" fill="white"/>
<path fill-rule="evenodd" clip-rule="evenodd" d="M109.576 24.5383C110.248 24.9644 110.999 25.1775 111.827 25.1775C112.414 25.1775 112.911 25.0804 113.319 24.8863C113.731 24.6922 114.064 24.4483 114.32 24.1548C114.58 23.8565 114.782 23.5558 114.924 23.2528H115.052V25H118.035V10.4545H115.016V15.9233H114.924C114.791 15.6297 114.597 15.3314 114.341 15.0284C114.09 14.7206 113.759 14.4649 113.347 14.2613C112.94 14.053 112.431 13.9488 111.82 13.9488C111.02 13.9488 110.284 14.1572 109.611 14.5738C108.944 14.9858 108.409 15.6084 108.006 16.4417C107.604 17.2703 107.402 18.3096 107.402 19.5596C107.402 20.7765 107.597 21.8039 107.985 22.642C108.378 23.4753 108.908 24.1074 109.576 24.5383ZM114.022 22.3721C113.686 22.6373 113.274 22.7698 112.786 22.7698C112.289 22.7698 111.87 22.6349 111.529 22.365C111.193 22.0904 110.935 21.7116 110.755 21.2286C110.58 20.741 110.492 20.1799 110.492 19.5454C110.492 18.9157 110.58 18.3617 110.755 17.8835C110.93 17.4053 111.188 17.0312 111.529 16.7613C111.87 16.4914 112.289 16.3565 112.786 16.3565C113.274 16.3565 113.688 16.4867 114.029 16.7471C114.37 17.0075 114.63 17.3768 114.81 17.8551C114.99 18.3333 115.08 18.8967 115.08 19.5454C115.08 20.1941 114.988 20.7599 114.803 21.2429C114.623 21.7258 114.363 22.1022 114.022 22.3721Z" fill="white"/>
<path d="M133.023 21.115C133.269 20.6841 133.392 20.1917 133.392 19.6377V10.4545H136.467V19.9005C136.467 20.9611 136.214 21.8892 135.708 22.6846C135.206 23.4801 134.503 24.1003 133.598 24.5454C132.694 24.9858 131.64 25.2059 130.438 25.2059C129.23 25.2059 128.174 24.9858 127.27 24.5454C126.366 24.1003 125.663 23.4801 125.161 22.6846C124.659 21.8892 124.408 20.9611 124.408 19.9005V10.4545H127.483V19.6377C127.483 20.1917 127.604 20.6841 127.845 21.115C128.092 21.5459 128.437 21.8844 128.882 22.1306C129.327 22.3769 129.846 22.5 130.438 22.5C131.034 22.5 131.553 22.3769 131.993 22.1306C132.438 21.8844 132.781 21.5459 133.023 21.115Z" fill="white"/>
<path d="M78.5479 14.0909V25H81.5734V14.0909H78.5479Z" fill="white"/>
<path d="M94.2305 25V10.4545H91.2049V25H94.2305Z" fill="white"/>
<path d="M141.673 25V10.4545H138.598V25H141.673Z" fill="white"/>
<defs>
<filter id="filter0_dddi_1_4728" x="0" y="0" width="38" height="38" filterUnits="userSpaceOnUse" color-interpolation-filters="sRGB">
<feFlood flood-opacity="0" result="BackgroundImageFix"/>
<feColorMatrix in="SourceAlpha" type="matrix" values="0 0 0 0 0 0 0 0 0 0 0 0 0 0 0 0 0 0 127 0" result="hardAlpha"/>
<feOffset dy="1"/>
<feGaussianBlur stdDeviation="1"/>
<feColorMatrix type="matrix" values="0 0 0 0 0.0392157 0 0 0 0 0.0509804 0 0 0 0 0.0705882 0 0 0 0.06 0"/>
<feBlend mode="normal" in2="BackgroundImageFix" result="effect1_dropShadow_1_4728"/>
<feColorMatrix in="SourceAlpha" type="matrix" values="0 0 0 0 0 0 0 0 0 0 0 0 0 0 0 0 0 0 127 0" result="hardAlpha"/>
<feOffset dy="1"/>
<feGaussianBlur stdDeviation="1.5"/>
<feColorMatrix type="matrix" values="0 0 0 0 0.0392157 0 0 0 0 0.0509804 0 0 0 0 0.0705882 0 0 0 0.1 0"/>
<feBlend mode="normal" in2="effect1_dropShadow_1_4728" result="effect2_dropShadow_1_4728"/>
<feColorMatrix in="SourceAlpha" type="matrix" values="0 0 0 0 0 0 0 0 0 0 0 0 0 0 0 0 0 0 127 0" result="hardAlpha"/>
<feMorphology radius="0.5" operator="erode" in="SourceAlpha" result="effect3_dropShadow_1_4728"/>
<feOffset dy="1"/>
<feGaussianBlur stdDeviation="0.5"/>
<feComposite in2="hardAlpha" operator="out"/>
<feColorMatrix type="matrix" values="0 0 0 0 0.0392157 0 0 0 0 0.0509804 0 0 0 0 0.0705882 0 0 0 0.13 0"/>
<feBlend mode="normal" in2="effect2_dropShadow_1_4728" result="effect3_dropShadow_1_4728"/>
<feBlend mode="normal" in="SourceGraphic" in2="effect3_dropShadow_1_4728" result="shape"/>
<feColorMatrix in="SourceAlpha" type="matrix" values="0 0 0 0 0 0 0 0 0 0 0 0 0 0 0 0 0 0 127 0" result="hardAlpha"/>
<feOffset dy="-0.5"/>
<feGaussianBlur stdDeviation="0.25"/>
<feComposite in2="hardAlpha" operator="arithmetic" k2="-1" k3="1"/>
<feColorMatrix type="matrix" values="0 0 0 0 0.0392157 0 0 0 0 0.0509804 0 0 0 0 0.0705882 0 0 0 0.1 0"/>
<feBlend mode="normal" in2="shape" result="effect4_innerShadow_1_4728"/>
</filter>
<filter id="filter1_dd_1_4728" x="8" y="8" width="22" height="22" filterUnits="userSpaceOnUse" color-interpolation-filters="sRGB">
<feFlood flood-opacity="0" result="BackgroundImageFix"/>
<feColorMatrix in="SourceAlpha" type="matrix" values="0 0 0 0 0 0 0 0 0 0 0 0 0 0 0 0 0 0 127 0" result="hardAlpha"/>
<feOffset dy="1"/>
<feGaussianBlur stdDeviation="1"/>
<feColorMatrix type="matrix" values="0 0 0 0 0.0392157 0 0 0 0 0.0509804 0 0 0 0 0.0705882 0 0 0 0.06 0"/>
<feBlend mode="normal" in2="BackgroundImageFix" result="effect1_dropShadow_1_4728"/>
<feColorMatrix in="SourceAlpha" type="matrix" values="0 0 0 0 0 0 0 0 0 0 0 0 0 0 0 0 0 0 127 0" result="hardAlpha"/>
<feOffset dy="1"/>
<feGaussianBlur stdDeviation="1.5"/>
<feColorMatrix type="matrix" values="0 0 0 0 0.0392157 0 0 0 0 0.0509804 0 0 0 0 0.0705882 0 0 0 0.1 0"/>
<feBlend mode="normal" in2="effect1_dropShadow_1_4728" result="effect2_dropShadow_1_4728"/>
<feBlend mode="normal" in="SourceGraphic" in2="effect2_dropShadow_1_4728" result="shape"/>
</filter>
<filter id="filter2_b_1_4728" x="-2" y="13" width="42" height="26" filterUnits="userSpaceOnUse" color-interpolation-filters="sRGB">
<feFlood flood-opacity="0" result="BackgroundImageFix"/>
<feGaussianBlur in="BackgroundImageFix" stdDeviation="2.5"/>
<feComposite in2="SourceAlpha" operator="in" result="effect1_backgroundBlur_1_4728"/>
<feBlend mode="normal" in="SourceGraphic" in2="effect1_backgroundBlur_1_4728" result="shape"/>
</filter>
<linearGradient id="paint0_linear_1_4728" x1="19" y1="2" x2="19" y2="34" gradientUnits="userSpaceOnUse">
<stop stop-color="white"/>
<stop offset="1" stop-color="#0A0D12"/>
</linearGradient>
<linearGradient id="paint1_linear_1_4728" x1="15" y1="26" x2="23" y2="10" gradientUnits="userSpaceOnUse">
<stop stop-color="#53389E"/>
<stop offset="1" stop-color="#6941C6"/>
</linearGradient>
<radialGradient id="paint2_radial_1_4728" cx="0" cy="0" r="1" gradientUnits="userSpaceOnUse" gradientTransform="translate(19 10) rotate(90) scale(12)">
<stop stop-color="white" stop-opacity="0"/>
<stop offset="0.5" stop-color="white" stop-opacity="0"/>
<stop offset="0.99" stop-color="white"/>
<stop offset="1" stop-color="white" stop-opacity="0"/>
</radialGradient>
<radialGradient id="paint3_radial_1_4728" cx="0" cy="0" r="1" gradientUnits="userSpaceOnUse" gradientTransform="translate(19 18) rotate(90) scale(8)">
<stop offset="0.746599" stop-color="white" stop-opacity="0"/>
<stop offset="1" stop-color="white"/>
</radialGradient>
<radialGradient id="paint4_radial_1_4728" cx="0" cy="0" r="1" gradientUnits="userSpaceOnUse" gradientTransform="translate(19 14.6) rotate(90) scale(7)">
<stop stop-color="white"/>
<stop offset="1" stop-color="white" stop-opacity="0"/>
</radialGradient>
<linearGradient id="paint5_linear_1_4728" x1="19" y1="11.6" x2="19" y2="14.8" gradientUnits="userSpaceOnUse">
<stop stop-color="white"/>
<stop offset="1" stop-color="white" stop-opacity="0.1"/>
</linearGradient>
<clipPath id="clip0_1_4728">
<path d="M3 14.8C3 10.3196 3 8.07937 3.87195 6.36808C4.63893 4.86278 5.86278 3.63893 7.36808 2.87195C9.07937 2 11.3196 2 15.8 2H22.2C26.6804 2 28.9206 2 30.6319 2.87195C32.1372 3.63893 33.3611 4.86278 34.1281 6.36808C35 8.07937 35 10.3196 35 14.8V21.2C35 25.6804 35 27.9206 34.1281 29.6319C33.3611 31.1372 32.1372 32.3611 30.6319 33.1281C28.9206 34 26.6804 34 22.2 34H15.8C11.3196 34 9.07937 34 7.36808 33.1281C5.86278 32.3611 4.63893 31.1372 3.87195 29.6319C3 27.9206 3 25.6804 3 21.2V14.8Z" fill="white"/>
</clipPath>
<clipPath id="clip1_1_4728">
<rect width="32" height="32" fill="white" transform="translate(3 2)"/>
</clipPath>
</defs>
</svg>
